<svg width="52" height="52" viewBox="0 0 52 52" fill="none" xmlns="http://www.w3.org/2000/svg">
<circle cx="26" cy="26" r="26" fill="#C8DCEF" fill-opacity="0.33"/>
<path d="M26.1586 25.62C26.1286 25.62 26.1086 25.62 26.0786 25.62C26.0286 25.61 25.9586 25.61 25.8986 25.62C22.9986 25.53 20.8086 23.25 20.8086 20.44C20.8086 17.58 23.1386 15.25 25.9986 15.25C28.8586 15.25 31.1886 17.58 31.1886 20.44C31.1786 23.25 28.9786 25.53 26.1886 25.62C26.1786 25.62 26.1686 25.62 26.1586 25.62ZM25.9986 16.75C23.9686 16.75 22.3086 18.41 22.3086 20.44C22.3086 22.44 23.8686 24.05 25.8586 24.12C25.9086 24.11 26.0486 24.11 26.1786 24.12C28.1386 24.03 29.6786 22.42 29.6886 20.44C29.6886 18.41 28.0286 16.75 25.9986 16.75Z" fill="#123149"/>
<path d="M26.1716 36.55C24.2116 36.55 22.2416 36.05 20.7516 35.05C19.3616 34.13 18.6016 32.87 18.6016 31.5C18.6016 30.13 19.3616 28.86 20.7516 27.93C23.7516 25.94 28.6116 25.94 31.5916 27.93C32.9716 28.85 33.7416 30.11 33.7416 31.48C33.7416 32.85 32.9816 34.12 31.5916 35.05C30.0916 36.05 28.1316 36.55 26.1716 36.55ZM21.5816 29.19C20.6216 29.83 20.1016 30.65 20.1016 31.51C20.1016 32.36 20.6316 33.18 21.5816 33.81C24.0716 35.48 28.2716 35.48 30.7616 33.81C31.7216 33.17 32.2416 32.35 32.2416 31.49C32.2416 30.64 31.7116 29.82 30.7616 29.19C28.2716 27.53 24.0716 27.53 21.5816 29.19Z" fill="#123149"/>
</svg>
