<svg width="21" height="21" viewBox="0 0 21 21" fill="none" xmlns="http://www.w3.org/2000/svg">
<path d="M8.4752 15.8001C8.31686 15.8001 8.15853 15.7418 8.03353 15.6168L2.9752 10.5585C2.73353 10.3168 2.73353 9.9168 2.9752 9.67513L8.03353 4.6168C8.2752 4.37513 8.6752 4.37513 8.91686 4.6168C9.15853 4.85846 9.15853 5.25846 8.91686 5.50013L4.3002 10.1168L8.91686 14.7335C9.15853 14.9751 9.15853 15.3751 8.91686 15.6168C8.8002 15.7418 8.63353 15.8001 8.4752 15.8001Z" fill="#7F91A3"/>
<path d="M17.5831 10.7422H3.55811C3.21644 10.7422 2.93311 10.4589 2.93311 10.1172C2.93311 9.77552 3.21644 9.49219 3.55811 9.49219H17.5831C17.9248 9.49219 18.2081 9.77552 18.2081 10.1172C18.2081 10.4589 17.9248 10.7422 17.5831 10.7422Z" fill="#7F91A3"/>
</svg>
