<svg width="147" height="51" viewBox="0 0 147 51" fill="none" xmlns="http://www.w3.org/2000/svg">
<path d="M55.3084 34.3608C53.5467 34.3608 52.0428 33.7592 50.7967 32.5561V38.3084C50.7967 39.1356 50.974 39.6512 51.3285 39.8553C51.6937 40.0594 52.6068 40.1614 54.0677 40.1614V41.9338H45.0605V40.1614C45.9844 40.1614 46.5644 40.0647 46.8007 39.8714C47.0371 39.6888 47.1821 39.4901 47.2358 39.2752C47.2895 39.0604 47.3164 38.7918 47.3164 38.4696V21.7121C47.3164 20.9387 47.2465 20.4338 47.1069 20.1975C46.978 19.9612 46.6128 19.843 46.0112 19.843H44.8672V18.0706C45.9306 18.0706 46.7631 17.9954 47.3647 17.845C47.9662 17.6839 48.3959 17.5711 48.6537 17.5066C48.9115 17.4315 49.1855 17.3939 49.4755 17.3939C50.0448 17.3939 50.4154 17.5604 50.5873 17.8934C50.7699 18.2156 50.8612 18.7366 50.8612 19.4563V19.5046C52.0643 18.0867 53.7024 17.3777 55.7756 17.3777C57.8596 17.3777 59.5407 18.0813 60.819 19.4885C62.0973 20.885 62.7364 22.9152 62.7364 25.5792C62.7364 28.2432 62.0704 30.3755 60.7384 31.9761C59.4172 33.5659 57.6071 34.3608 55.3084 34.3608ZM50.7162 26.0465C50.7162 28.023 51.0975 29.5806 51.8602 30.7192C52.6229 31.8579 53.6434 32.4272 54.9217 32.4272C56.1892 32.4272 57.1828 31.8472 57.9025 30.687C58.6223 29.5161 58.9821 27.9586 58.9821 26.0143C58.9821 22.9098 58.2302 20.8581 56.7263 19.8591C56.1892 19.4939 55.5554 19.3113 54.825 19.3113C54.0945 19.3113 53.4769 19.4832 52.972 19.8269C52.4671 20.1707 52.0482 20.6433 51.7152 21.2448C51.0492 22.4694 50.7162 24.07 50.7162 26.0465Z" fill="#123149"/>
<path d="M65.6045 25.7887C65.6045 24.4997 65.8033 23.3127 66.2007 22.2277C66.6089 21.1321 67.1729 20.2244 67.8926 19.5046C69.3105 18.0867 71.1957 17.3777 73.5482 17.3777C75.9222 17.3777 77.8342 18.0921 79.2844 19.5208C80.7453 20.9387 81.4758 22.9582 81.4758 25.5792C81.4758 28.1895 80.8044 30.3057 79.4617 31.9277C78.1189 33.5498 76.1478 34.3608 73.5482 34.3608C70.9487 34.3608 68.9721 33.5766 67.6186 32.0083C66.2759 30.4292 65.6045 28.356 65.6045 25.7887ZM73.5482 32.4272C74.7943 32.4272 75.804 31.8579 76.5774 30.7192C77.3616 29.5806 77.7537 27.9801 77.7537 25.9176C77.7537 22.5983 76.9158 20.5251 75.2401 19.698C74.7244 19.4402 74.1605 19.3113 73.5482 19.3113C71.5609 19.3113 70.2665 20.5144 69.665 22.9206C69.4501 23.7477 69.3427 24.7145 69.3427 25.8209C69.3427 27.9478 69.7294 29.5806 70.5029 30.7192C71.287 31.8579 72.3021 32.4272 73.5482 32.4272Z" fill="#123149"/>
<path d="M94.2694 34.3608C92.5078 34.3608 91.0039 33.7592 89.7578 32.5561V38.3084C89.7578 39.1356 89.9351 39.6512 90.2895 39.8553C90.6548 40.0594 91.5678 40.1614 93.0287 40.1614V41.9338H84.0216V40.1614C84.9454 40.1614 85.5255 40.0647 85.7618 39.8714C85.9981 39.6888 86.1431 39.4901 86.1969 39.2752C86.2506 39.0604 86.2774 38.7918 86.2774 38.4696V21.7121C86.2774 20.9387 86.2076 20.4338 86.068 20.1975C85.939 19.9612 85.5738 19.843 84.9723 19.843H83.8283V18.0706C84.8917 18.0706 85.7242 17.9954 86.3258 17.845C86.9273 17.6839 87.357 17.5711 87.6148 17.5066C87.8726 17.4315 88.1465 17.3939 88.4366 17.3939C89.0059 17.3939 89.3765 17.5604 89.5483 17.8934C89.731 18.2156 89.8223 18.7366 89.8223 19.4563V19.5046C91.0254 18.0867 92.6635 17.3777 94.7367 17.3777C96.8206 17.3777 98.5018 18.0813 99.7801 19.4885C101.058 20.885 101.697 22.9152 101.697 25.5792C101.697 28.2432 101.031 30.3755 99.6995 31.9761C98.3782 33.5659 96.5682 34.3608 94.2694 34.3608ZM89.6772 26.0465C89.6772 28.023 90.0586 29.5806 90.8213 30.7192C91.5839 31.8579 92.6044 32.4272 93.8827 32.4272C95.1503 32.4272 96.1439 31.8472 96.8636 30.687C97.5833 29.5161 97.9432 27.9586 97.9432 26.0143C97.9432 22.9098 97.1912 20.8581 95.6874 19.8591C95.1503 19.4939 94.5165 19.3113 93.786 19.3113C93.0556 19.3113 92.4379 19.4832 91.9331 19.8269C91.4282 20.1707 91.0093 20.6433 90.6763 21.2448C90.0102 22.4694 89.6772 24.07 89.6772 26.0465Z" fill="#123149"/>
<path d="M104.243 32.2661C105.178 32.2661 105.817 32.1372 106.161 31.8794C106.515 31.6216 106.693 31.1758 106.693 30.542V13.0917C106.693 12.3183 106.623 11.8134 106.483 11.5771C106.354 11.3408 105.989 11.2226 105.387 11.2226H104.082V9.45018C105.167 9.45018 106.016 9.37499 106.628 9.2246C107.24 9.06347 107.675 8.95068 107.933 8.88623C108.202 8.81103 108.481 8.77344 108.771 8.77344C109.33 8.77344 109.7 8.93457 109.883 9.25683C110.076 9.57908 110.173 10.1054 110.173 10.8359V30.542C110.173 31.208 110.313 31.6645 110.592 31.9116C110.882 32.1479 111.548 32.2661 112.59 32.2661V34.0385H104.243V32.2661Z" fill="#123149"/>
<path d="M129.138 30.1875C129.138 31.4658 129.39 32.105 129.895 32.105C130.379 32.105 130.733 31.9438 130.959 31.6216C131.184 31.2886 131.297 30.6924 131.297 29.833H132.989C133 29.9727 133.005 30.1929 133.005 30.4937C133.005 31.4604 132.763 32.2983 132.28 33.0073C131.689 33.9096 130.749 34.3608 129.46 34.3608C128.622 34.3608 127.908 34.1244 127.317 33.6518C126.726 33.1792 126.318 32.5561 126.092 31.7827C124.535 33.5014 122.564 34.3608 120.179 34.3608C118.869 34.3608 117.724 33.9794 116.747 33.2168C115.78 32.4433 115.297 31.3691 115.297 29.9942C115.297 27.6095 117.058 25.8478 120.582 24.7091C122.816 24.0002 124.154 23.5114 124.594 23.2428C125.034 22.9636 125.319 22.6843 125.448 22.405C125.588 22.1149 125.657 21.7927 125.657 21.4382C125.657 20.8044 125.346 20.2781 124.723 19.8591C124.1 19.4295 123.289 19.2146 122.29 19.2146C121.291 19.2146 120.41 19.4832 119.647 20.0203C120.184 20.4177 120.453 20.928 120.453 21.551C120.453 22.174 120.243 22.6735 119.825 23.0495C119.416 23.4255 118.917 23.6134 118.326 23.6134C117.746 23.6134 117.263 23.4362 116.876 23.0817C116.5 22.7272 116.312 22.2331 116.312 21.5993C116.312 20.3425 116.946 19.3274 118.213 18.554C119.481 17.7698 121.022 17.3777 122.838 17.3777C126.082 17.3777 128.064 18.4305 128.783 20.5359C129.02 21.2341 129.138 22.0398 129.138 22.9528V30.1875ZM122.032 26.1754C121.087 26.5836 120.378 27.11 119.905 27.7545C119.432 28.3882 119.196 29.0811 119.196 29.833C119.196 30.585 119.4 31.1543 119.808 31.541C120.217 31.9277 120.727 32.1211 121.339 32.1211C122.585 32.1211 123.616 31.686 124.433 30.8159C125.249 29.9351 125.657 28.7105 125.657 27.1422V24.6608C124.97 25.0153 124.239 25.3375 123.466 25.6276C122.703 25.9176 122.225 26.1002 122.032 26.1754Z" fill="#123149"/>
<path d="M133.956 32.2661C134.879 32.2661 135.459 32.1748 135.696 31.9922C135.932 31.7988 136.072 31.5947 136.115 31.3799C136.168 31.165 136.195 30.8965 136.195 30.5742V21.696C136.195 20.9226 136.125 20.4177 135.986 20.1814C135.857 19.9451 135.497 19.8269 134.906 19.8269H133.923V18.0545C134.944 18.0545 135.733 17.9793 136.292 17.8289C136.861 17.6678 137.264 17.555 137.5 17.4905C137.747 17.4153 138.011 17.3777 138.29 17.3777C138.838 17.3777 139.203 17.5389 139.386 17.8611C139.579 18.1834 139.676 18.7097 139.676 19.4402V19.7625C140.599 18.6775 141.647 17.9471 142.818 17.5711C143.237 17.4422 143.656 17.3777 144.075 17.3777C144.88 17.3777 145.503 17.6087 145.944 18.0706C146.395 18.5325 146.62 19.1018 146.62 19.7786C146.62 20.4553 146.406 21.0085 145.976 21.4382C145.546 21.8679 145.025 22.0827 144.413 22.0827C143.811 22.0827 143.312 21.8679 142.914 21.4382C142.528 21.0085 142.356 20.4714 142.399 19.8269C141.958 19.8914 141.486 20.0955 140.981 20.4392C140.487 20.7722 140.052 21.2287 139.676 21.8088V30.4292C139.676 30.8374 139.708 31.165 139.772 31.4121C139.848 31.6484 140.036 31.8525 140.336 32.0244C140.648 32.1855 141.572 32.2661 143.108 32.2661V34.0385H133.956V32.2661Z" fill="#123149"/>
<circle cx="30.2388" cy="32.4683" r="1.78572" fill="#7B935C"/>
<circle cx="2.46541" cy="32.4681" r="1.78572" fill="#AFD37F"/>
<circle cx="30.2388" cy="21.7537" r="1.78572" fill="#7B935C"/>
<circle cx="2.46541" cy="21.7537" r="1.78572" fill="#AFD37F"/>
<circle cx="9.21541" cy="36.0394" r="1.78572" fill="#AFD37F"/>
<circle cx="9.21541" cy="26.1187" r="1.78572" fill="#AFD37F"/>
<circle cx="23.8951" cy="15.8013" r="1.78572" fill="#7B935C"/>
<circle cx="9.21541" cy="15.8013" r="1.78572" fill="#AFD37F"/>
<circle cx="17.1451" cy="22.1502" r="1.78572" fill="#7B935C"/>
<circle cx="17.1451" cy="12.2298" r="1.78572" fill="#AFD37F"/>
<circle cx="23.8951" cy="8.26155" r="1.78572" fill="#AFD37F"/>
<circle cx="9.21541" cy="8.26155" r="1.78572" fill="#AFD37F"/>
<circle cx="17.1451" cy="2.30916" r="1.78572" fill="#AFD37F"/>
<circle cx="17.1451" cy="48.7379" r="1.78572" fill="#7B935C"/>
<circle cx="17.1451" cy="40.0074" r="1.78572" fill="#7B935C"/>
<circle cx="23.8951" cy="36.0394" r="1.78572" fill="#7B935C"/>
<circle cx="23.8951" cy="26.1187" r="1.78572" fill="#7B935C"/>
<circle cx="17.1451" cy="30.8809" r="1.78572" fill="#7B935C"/>
</svg>
